<?xml version="1.0" encoding="utf-8"?>
<!-- Generator: Adobe Illustrator 25.2.3, SVG Export Plug-In . SVG Version: 6.00 Build 0)  -->
<svg version="1.1" id="Warstwa_1" xmlns="http://www.w3.org/2000/svg" xmlns:xlink="http://www.w3.org/1999/xlink" x="0px" y="0px"
	 viewBox="0 0 96 97" style="enable-background:new 0 0 96 97;" xml:space="preserve">
<style type="text/css">
	.st0{clip-path:url(#SVGID_2_);}
	.st1{fill:#A149F2;}
	.st2{fill:#F7D1FF;}
</style>
<g>
	<defs>
		<path id="SVGID_1_" d="M0,3.5c0-1.7,1.3-3,3-3h90c1.7,0,3,1.3,3,3v90c0,1.7-1.3,3-3,3H3c-1.7,0-3-1.3-3-3V3.5z"/>
	</defs>
	<clipPath id="SVGID_2_">
		<use xlink:href="#SVGID_1_"  style="overflow:visible;"/>
	</clipPath>
	<g class="st0">
		<path class="st1" d="M0,18.5c0-9.9,8.1-18,18-18h60c9.9,0,18,8.1,18,18v60c0,9.9-8.1,18-18,18H18c-9.9,0-18-8.1-18-18V18.5z"/>
		<path class="st2" d="M77.7,51.5c0.2,0,0.3,0.1,0.3,0.3c-0.1,7.9-3.2,15.4-8.8,20.9C63.6,78.3,56,81.5,48,81.5
			c-8,0-15.6-3.2-21.2-8.8c-5.6-5.6-8.7-13.1-8.8-20.9c0-0.2,0.1-0.3,0.3-0.3H77.7z"/>
		<path class="st2" d="M77.7,21.5c0.2,0,0.3,0.1,0.3,0.3c-0.1,7.9-3.2,15.4-8.8,20.9C63.6,48.3,56,51.5,48,51.5s-15.6-3.2-21.2-8.8
			c-5.6-5.6-8.7-13.1-8.8-20.9c0-0.2,0.1-0.3,0.3-0.3H77.7z"/>
	</g>
</g>
</svg>
